PathFileType	4	(X/Y/Z)	 s03c0303.trc
DataRate	CameraRate	NumFrames	NumMarkers	Units	OrigDataRate	OrigDataStartFrame	OrigNumFrames
200	200	4	50	mm	200	251	2000
Frame#	Time	racr			lacr			c7			jug			rlel			rdr			llel			ldr			s2			lic			ric			lasi			rasi			rpsi			lpsi			rgt			lgt			rth1			rth2			rth3			rth4			rlfc			rmfc			rsh1			rsh2			rsh3			rsh4			rlmal			rcal			rtoe			rmt5			rmt1			lth1			lth2			lth4			lth3			llfc			lmfc			lsh1			lsh2			lsh3			lsh4			llmal			lcal			ltoe			lmt1			lmt5			SBIKE			LBIKE			RBIKE			
		X1	Y1	Z1	X2	Y2	Z2	X3	Y3	Z3	X4	Y4	Z4	X5	Y5	Z5	X6	Y6	Z6	X7	Y7	Z7	X8	Y8	Z8	X9	Y9	Z9	X10	Y10	Z10	X11	Y11	Z11	X12	Y12	Z12	X13	Y13	Z13	X14	Y14	Z14	X15	Y15	Z15	X16	Y16	Z16	X17	Y17	Z17	X18	Y18	Z18	X19	Y19	Z19	X20	Y20	Z20	X21	Y21	Z21	X22	Y22	Z22	X23	Y23	Z23	X24	Y24	Z24	X25	Y25	Z25	X26	Y26	Z26	X27	Y27	Z27	X28	Y28	Z28	X29	Y29	Z29	X30	Y30	Z30	X31	Y31	Z31	X32	Y32	Z32	X33	Y33	Z33	X34	Y34	Z34	X35	Y35	Z35	X36	Y36	Z36	X37	Y37	Z37	X38	Y38	Z38	X39	Y39	Z39	X40	Y40	Z40	X41	Y41	Z41	X42	Y42	Z42	X43	Y43	Z43	X44	Y44	Z44	X45	Y45	Z45	X46	Y46	Z46	X47	Y47	Z47	X48	Y48	Z48	X49	Y49	Z49	X50	Y50	Z50	
251	1.2550	535.883614	1479.822183	-76.526713	547.778608	1459.410139	-389.605337	460.164986	1553.722513	-235.661066	502.749669	1388.381384	-227.160439	547.773406	1196.659043	1.291013	739.017627	969.961120	-32.798212	584.520219	1180.545462	-454.251437	744.980500	926.562777	-410.975260	-51.365645	1259.542504	-254.652837	138.260776	1265.317786	-429.016457	115.766521	1275.108825	-64.263911	147.902426	1186.752354	-387.806390	146.244629	1203.814465	-114.700945	-20.822974	1310.033812	-210.706629	-10.005056	1301.798639	-290.513650	60.272949	1194.203659	-51.878647	67.549388	1155.091266	-450.175621	162.209975	1066.324633	-30.809566	244.123077	1032.123565	-30.717055	299.189787	965.992952	-38.108351	266.008652	1060.881786	-40.077303	386.786258	869.672384	-63.902464	395.551877	858.146586	-186.649945	348.590826	705.906433	-40.135760	349.581590	617.531715	-54.927989	306.461823	540.707617	-56.470755	378.666052	612.901933	-80.462213	262.071979	416.527777	-74.522225	203.052546	357.800011	-113.976834	511.614265	403.350760	-105.363573	393.659540	370.556828	-38.137002	419.269990	390.459561	-152.893679	151.044818	1029.090714	-476.346068	218.064121	974.155519	-484.054075	247.822191	994.747268	-476.715722	249.206663	890.483331	-483.186646	328.317825	784.288326	-472.043510	330.966805	773.755937	-345.769113	213.579161	651.655427	-479.904928	182.409842	577.420773	-453.597684	110.953370	522.773635	-438.656279	209.727785	562.235312	-429.684979	27.799616	431.195632	-408.873393	-46.821622	426.618442	-358.027547	205.069188	246.209004	-351.057748	127.824226	299.551002	-315.166267	95.195019	294.500268	-427.134499	-262.002046	927.022798	-242.169165	-8.092641	83.848913	-437.011628	-14.079144	80.763254	-36.641039	
252	1.2600	537.440886	1480.449763	-75.927219	549.630204	1459.833537	-389.270198	462.073005	1554.488106	-235.392425	504.674522	1389.104003	-226.822137	548.385804	1197.040499	1.753024	739.198191	970.050417	-32.804514	585.722955	1181.057026	-454.372990	745.133045	926.438982	-410.935852	-49.086558	1259.813452	-254.774720	140.536735	1265.788596	-429.065438	117.775656	1275.469883	-64.296232	150.181387	1187.183144	-387.781491	148.525490	1203.960591	-114.755990	-18.616697	1310.304766	-210.836188	-7.800327	1302.160848	-290.722418	62.339785	1194.216077	-52.033361	69.873808	1155.720267	-450.354692	163.726553	1065.620235	-30.996383	245.430837	1030.890519	-30.867933	300.136236	964.597072	-38.145870	267.628869	1059.715538	-39.926341	387.228808	867.826783	-63.933253	395.218816	855.621465	-185.861320	348.921518	704.016583	-40.034436	349.997512	615.625990	-54.778516	306.922059	538.765551	-56.331280	379.071277	611.048146	-80.293134	262.630629	414.507292	-74.410360	203.582340	355.898873	-113.871419	512.263682	400.907504	-105.405024	395.880882	369.224626	-37.019113	419.886718	388.230328	-152.848150	153.618316	1030.127099	-476.661096	220.734528	975.351262	-484.412546	250.438864	995.977063	-476.969972	252.005372	891.814991	-484.011092	331.111929	785.436524	-472.921040	333.726780	774.749128	-346.482925	215.619979	653.367119	-480.385766	184.053008	579.219077	-453.946761	112.352700	525.023365	-438.897590	211.358090	563.876592	-430.045928	28.823776	433.943985	-408.897297	-45.740604	430.033522	-357.964802	204.683630	247.389082	-351.100004	127.831153	301.501370	-315.269631	95.228337	296.828072	-427.493403	-262.048720	927.012783	-242.121459	-8.087189	83.865529	-437.006246	-14.083467	80.758067	-36.646646	
253	1.2650	539.040464	1480.994478	-75.308280	551.523407	1460.239165	-388.871707	464.010671	1555.215847	-235.056080	506.700597	1389.806151	-226.447610	548.895237	1197.356292	2.162951	739.382250	970.130397	-32.799964	586.953319	1181.623588	-454.477996	745.387336	926.312629	-410.970489	-46.688454	1260.174657	-255.021440	142.825442	1266.258457	-429.084111	119.780307	1275.808698	-64.244133	152.541675	1187.686246	-387.849720	150.592074	1204.364723	-114.398801	-16.396391	1310.504981	-210.896912	-5.580716	1302.478052	-290.877715	64.454392	1194.234755	-52.230852	72.316911	1156.433472	-450.580025	165.371690	1065.055441	-31.012708	246.813879	1029.849221	-30.798282	301.145574	963.187469	-38.112920	269.190491	1058.450741	-39.805707	387.659888	865.939303	-63.948692	395.756718	853.655078	-185.753374	349.251809	702.081426	-39.954025	350.410269	613.727157	-54.639422	307.366444	536.786921	-56.199623	379.470447	609.071436	-80.165007	263.087454	412.342804	-74.301734	204.047261	353.962293	-113.799822	512.826511	398.508194	-105.622099	393.415513	366.011833	-38.189224	420.429921	385.925826	-152.767351	156.223148	1031.183664	-477.054394	223.444884	976.556235	-484.838473	253.099979	997.231051	-477.275515	254.895805	893.059638	-484.707440	333.885635	786.589323	-473.629591	336.567277	775.783909	-347.231559	217.741777	655.065783	-480.858308	185.845616	581.160743	-454.434194	113.845938	527.348218	-439.119483	213.126121	565.656684	-430.639308	29.940609	436.763101	-408.934344	-44.558932	433.490901	-357.938188	204.147772	248.599785	-351.107018	127.893231	303.463894	-315.373247	95.174814	298.985856	-427.515748	-261.914624	926.985868	-241.926587	-8.091237	83.872761	-436.994921	-14.078320	80.750246	-36.664638	
254	1.2700	540.714007	1481.576044	-74.635174	553.503997	1460.681636	-388.498458	465.958610	1555.963109	-234.680791	508.690206	1390.624096	-225.971906	549.552690	1197.756248	2.614083	739.526512	970.210267	-32.790426	588.278493	1182.101049	-454.496601	745.671001	926.184380	-411.033549	-44.345423	1260.459953	-255.186593	145.162206	1266.791145	-429.184562	121.812616	1276.140099	-64.210624	154.924173	1188.177933	-387.917282	152.587463	1204.719078	-114.095618	-14.087499	1310.769226	-211.025224	-3.284920	1302.757580	-291.116139	66.614159	1194.176598	-52.393260	74.722569	1157.053740	-450.725508	167.000019	1064.406661	-31.061694	248.276573	1028.597210	-30.761826	302.072829	961.653707	-38.090366	270.758199	1057.119129	-39.680880	388.106800	864.005993	-63.976366	396.189826	851.364287	-185.278924	349.848338	700.041748	-40.039441	350.812764	611.746890	-54.521122	307.836596	534.802764	-56.065482	379.877816	607.090057	-80.042700	263.636208	410.292259	-74.178305	204.567492	351.991941	-113.652190	513.411556	395.909718	-105.695171	393.971951	363.762328	-38.108908	420.961914	383.734723	-152.676074	158.871503	1032.245538	-477.502714	226.241614	977.800890	-485.268181	255.848573	998.495541	-477.569817	257.834543	894.392101	-485.417742	336.846874	787.888956	-474.454263	339.469150	776.949582	-348.012313	219.923173	656.868336	-481.377925	187.656444	583.059566	-454.815296	115.405594	529.649789	-439.364287	214.930446	567.497290	-431.071233	31.080107	439.616993	-409.009490	-43.271526	437.035582	-357.943977	203.696774	249.606996	-351.092423	127.979885	305.408185	-315.464085	95.146344	301.121139	-427.479561	-261.956067	927.004717	-241.944810	-8.085603	83.869969	-437.003151	-14.065293	80.752387	-36.643920	
